<?xml version="1.0" encoding="iso-8859-1"?>
<!-- Generator: Adobe Illustrator 17.1.0, SVG Export Plug-In . SVG Version: 6.00 Build 0)  -->
<!DOCTYPE svg PUBLIC "-//W3C//DTD SVG 1.1//EN" "http://www.w3.org/Graphics/SVG/1.1/DTD/svg11.dtd">
<svg xmlns="http://www.w3.org/2000/svg" xmlns:xlink="http://www.w3.org/1999/xlink" version="1.1" id="Capa_1" x="0px" y="0px" viewBox="0 0 294 294" style="enable-background:new 0 0 294 294;" xml:space="preserve" width="512px" height="512px">
<path d="M95.667,97h101v101h-101V97z M260.667,135v24H279c8.284,0,15,6.716,15,15s-6.716,15-15,15h-18.333v25H279  c8.284,0,15,6.716,15,15s-6.716,15-15,15h-18.333v1.5c0,8.284-6.549,15.5-14.833,15.5h-2.167v18c0,8.284-6.716,15-15,15  s-15-6.716-15-15v-18h-25v18c0,8.284-6.716,15-15,15s-15-6.716-15-15v-18h-24v18c0,8.284-6.716,15-15,15s-15-6.716-15-15v-18h-25v18  c0,8.284-6.716,15-15,15s-15-6.716-15-15v-18H48.5c-8.284,0-15.833-7.216-15.833-15.5V244H15c-8.284,0-15-6.716-15-15  s6.716-15,15-15h17.667v-25H15c-8.284,0-15-6.716-15-15s6.716-15,15-15h17.667v-24H15c-8.284,0-15-6.716-15-15s6.716-15,15-15  h17.667V80H15C6.716,80,0,73.284,0,65s6.716-15,15-15h17.667v-1.5c0-8.284,7.549-14.5,15.833-14.5h1.167V15c0-8.284,6.716-15,15-15  s15,6.716,15,15v19h25V15c0-8.284,6.716-15,15-15s15,6.716,15,15v19h24V15c0-8.284,6.716-15,15-15s15,6.716,15,15v19h25V15  c0-8.284,6.716-15,15-15s15,6.716,15,15v19h2.167c8.284,0,14.833,6.216,14.833,14.5V50H279c8.284,0,15,6.716,15,15s-6.716,15-15,15  h-18.333v25H279c8.284,0,15,6.716,15,15s-6.716,15-15,15H260.667z M226.667,82c0-8.284-6.716-15-15-15h-131c-8.284,0-15,6.716-15,15  v131c0,8.284,6.716,15,15,15h131c8.284,0,15-6.716,15-15V82z" fill="#FFFFFF"/>
<g>
</g>
<g>
</g>
<g>
</g>
<g>
</g>
<g>
</g>
<g>
</g>
<g>
</g>
<g>
</g>
<g>
</g>
<g>
</g>
<g>
</g>
<g>
</g>
<g>
</g>
<g>
</g>
<g>
</g>
</svg>
